<svg xmlns="http://www.w3.org/2000/svg" width="80" height="80"><g data-name="Group 266"><g data-name="Group 190"><g data-name="Group 14"><path data-name="Path 65" d="M40 0A40 40 0 1 1 0 40 40 40 0 0 1 40 0Z" fill="#9f8268"/></g><g data-name="Path 206" fill="none"><path d="M40.275 4.752A35.225 35.225 0 1 1 5.05 39.977 35.225 35.225 0 0 1 40.275 4.752Z"/><path d="M40.275 8.752a31.126 31.126 0 0 0-22.08 9.146 31.126 31.126 0 0 0-9.145 22.08 31.126 31.126 0 0 0 9.146 22.08 31.126 31.126 0 0 0 22.08 9.144 31.126 31.126 0 0 0 22.08-9.146 31.126 31.126 0 0 0 9.144-22.079 31.126 31.126 0 0 0-9.146-22.08 31.126 31.126 0 0 0-22.079-9.145m0-4c19.454 0 35.225 15.77 35.225 35.225 0 19.454-15.77 35.225-35.225 35.225-19.454 0-35.225-15.77-35.225-35.225 0-19.454 15.77-35.225 35.225-35.225Z" fill="#fff"/></g></g><g data-name="calendar (1)" fill="#fff"><path data-name="Path 14" d="M59.201 33.829v-4.425a3.379 3.379 0 0 0-3.375-3.375h-.45v4.125a1.125 1.125 0 0 1-2.25 0v-6a1.125 1.125 0 0 0-2.25 0v1.875h-7.5v4.125a1.125 1.125 0 1 1-2.25 0v-6a1.125 1.125 0 0 0-2.25 0v1.875h-7.5v4.125a1.125 1.125 0 1 1-2.25 0v-6a1.125 1.125 0 0 0-2.25 0v1.875h-2.7a3.379 3.379 0 0 0-3.375 3.375v4.425Z"/><path data-name="Path 15" d="M20.801 36.079v18.225a3.379 3.379 0 0 0 3.375 3.375h31.65a3.379 3.379 0 0 0 3.375-3.375V36.079Zm10.8 15.6h-2.4a1.125 1.125 0 1 1 0-2.25h2.4a1.125 1.125 0 1 1 0 2.25Zm0-4.8h-2.4a1.125 1.125 0 1 1 0-2.25h2.4a1.125 1.125 0 1 1 0 2.25Zm0-4.8h-2.4a1.125 1.125 0 1 1 0-2.25h2.4a1.125 1.125 0 1 1 0 2.25Zm9.6 9.6h-2.4a1.125 1.125 0 0 1 0-2.25h2.4a1.125 1.125 0 0 1 0 2.25Zm0-4.8h-2.4a1.125 1.125 0 0 1 0-2.25h2.4a1.125 1.125 0 0 1 0 2.25Zm0-4.8h-2.4a1.125 1.125 0 0 1 0-2.25h2.4a1.125 1.125 0 0 1 0 2.25Zm9.6 9.6h-2.4a1.125 1.125 0 0 1 0-2.25h2.4a1.125 1.125 0 1 1 0 2.25Zm0-4.8h-2.4a1.125 1.125 0 0 1 0-2.25h2.4a1.125 1.125 0 1 1 0 2.25Zm0-4.8h-2.4a1.125 1.125 0 0 1 0-2.25h2.4a1.125 1.125 0 1 1 0 2.25Z"/></g></g></svg>