<svg xmlns="http://www.w3.org/2000/svg" width="80" height="80"><g data-name="Group 271"><g data-name="Group 190"><g data-name="Group 14"><path data-name="Path 65" d="M40 0A40 40 0 1 1 0 40 40 40 0 0 1 40 0Z" fill="#9f8268"/></g><g data-name="Path 206" fill="none"><path d="M40.275 4.752A35.225 35.225 0 1 1 5.05 39.977 35.225 35.225 0 0 1 40.275 4.752Z"/><path d="M40.275 8.752a31.126 31.126 0 0 0-22.08 9.146 31.126 31.126 0 0 0-9.145 22.08 31.126 31.126 0 0 0 9.146 22.08 31.126 31.126 0 0 0 22.08 9.144 31.126 31.126 0 0 0 22.08-9.146 31.126 31.126 0 0 0 9.144-22.079 31.126 31.126 0 0 0-9.146-22.08 31.126 31.126 0 0 0-22.079-9.145m0-4c19.454 0 35.225 15.77 35.225 35.225 0 19.454-15.77 35.225-35.225 35.225-19.454 0-35.225-15.77-35.225-35.225 0-19.454 15.77-35.225 35.225-35.225Z" fill="#fff"/></g></g><g fill="#fff"><path data-name="Path 255" d="M38.828 19.806a19.863 19.863 0 0 0-12.135 5.028l5.227 5.23a12.534 12.534 0 0 1 6.906-2.861Z"/><path data-name="Path 256" d="m30.265 31.72-5.229-5.229a19.861 19.861 0 0 0-5.035 12.135h7.4a12.535 12.535 0 0 1 2.867-6.906Z"/><path data-name="Path 257" d="M52.602 38.626h7.4a19.86 19.86 0 0 0-5.035-12.135l-5.229 5.229a12.535 12.535 0 0 1 2.864 6.906Z"/><path data-name="Path 258" d="M52.601 40.97a12.482 12.482 0 0 1-1.289 4.518c.594.916 1.09 1.691 1.417 2.205a3.52 3.52 0 0 1-1.444 5.058l1.218 1.218a1.174 1.174 0 0 0 1.66 0 19.886 19.886 0 0 0 5.836-13Z"/><path data-name="Path 259" d="M27.4 40.97H20a19.887 19.887 0 0 0 5.836 13 1.174 1.174 0 0 0 1.66 0l3.556-3.556a1.174 1.174 0 0 0 0-1.66A12.58 12.58 0 0 1 27.4 40.97Z"/><path data-name="Path 260" d="M53.307 24.834a19.862 19.862 0 0 0-12.135-5.028v7.4a12.534 12.534 0 0 1 6.906 2.861Z"/><path data-name="Path 261" d="M42.604 37.214a3.683 3.683 0 1 0-5.208 5.208c1.814 1.814 10.727 7.505 11.738 8.148a1.172 1.172 0 0 0 1.618-1.618c-.643-1.009-6.335-9.924-8.148-11.738Z"/></g></g></svg>