<svg xmlns="http://www.w3.org/2000/svg" width="80" height="80"><g data-name="Group 268"><g data-name="Group 190"><g data-name="Group 14"><path data-name="Path 65" d="M40 0A40 40 0 1 1 0 40 40 40 0 0 1 40 0Z" fill="#9f8268"/></g><g data-name="Path 206" fill="none"><path d="M40.275 4.752A35.225 35.225 0 1 1 5.05 39.977 35.225 35.225 0 0 1 40.275 4.752Z"/><path d="M40.275 8.752a31.126 31.126 0 0 0-22.08 9.146 31.126 31.126 0 0 0-9.145 22.08 31.126 31.126 0 0 0 9.146 22.08 31.126 31.126 0 0 0 22.08 9.144 31.126 31.126 0 0 0 22.08-9.146 31.126 31.126 0 0 0 9.144-22.079 31.126 31.126 0 0 0-9.146-22.08 31.126 31.126 0 0 0-22.079-9.145m0-4c19.454 0 35.225 15.77 35.225 35.225 0 19.454-15.77 35.225-35.225 35.225-19.454 0-35.225-15.77-35.225-35.225 0-19.454 15.77-35.225 35.225-35.225Z" fill="#fff"/></g></g><g data-name="social-media (1)" fill="#fff"><path data-name="Path 139" d="M50.041 51.032a1.559 1.559 0 1 0-1.559-1.559 1.561 1.561 0 0 0 1.559 1.559Z"/><path data-name="Path 140" d="M50.042 53.394a3.732 3.732 0 0 0-3.727 3.729v2.767a10.16 10.16 0 0 0 7.457 0v-2.767a3.733 3.733 0 0 0-3.73-3.729Z"/><path data-name="Path 141" d="M50.04 40.36a10.07 10.07 0 0 0-6.275 2.187l-5.911-5.811.051-.063a10.1 10.1 0 0 0 2.1-5.094h7.874a6.2 6.2 0 1 0 0-2.362h-7.87a10.12 10.12 0 1 0-16.141 9.269v-1.444a6.1 6.1 0 0 1 3-5.245 3.921 3.921 0 1 1 6.187 0 6.115 6.115 0 0 1 2.826 3.809 10.93 10.93 0 0 1 .171 2.881l6.035 5.746a10.071 10.071 0 0 0-2.094 5.065h-7.877a6.2 6.2 0 1 0 0 2.362h7.874a10.108 10.108 0 0 0 3.96 6.907v-1.444a6.094 6.094 0 0 1 3-5.245 3.922 3.922 0 1 1 6.187 0 6.1 6.1 0 0 1 3 5.245v1.444A10.124 10.124 0 0 0 50.04 40.36Z"/><path data-name="Path 142" d="M31.518 29.391a1.559 1.559 0 1 0-1.558 1.558 1.56 1.56 0 0 0 1.558-1.558Z"/><path data-name="Path 143" d="M26.231 37.042v2.77a10.161 10.161 0 0 0 7.457 0v-2.77a3.728 3.728 0 1 0-7.457 0Z"/></g></g></svg>