<svg xmlns="http://www.w3.org/2000/svg" width="80" height="80"><g data-name="Group 272"><g data-name="Group 190"><g data-name="Group 14"><path data-name="Path 65" d="M40 0A40 40 0 1 1 0 40 40 40 0 0 1 40 0Z" fill="#9f8268"/></g><g data-name="Path 206" fill="none"><path d="M40.275 4.752A35.225 35.225 0 1 1 5.05 39.977 35.225 35.225 0 0 1 40.275 4.752Z"/><path d="M40.275 8.752a31.126 31.126 0 0 0-22.08 9.146 31.126 31.126 0 0 0-9.145 22.08 31.126 31.126 0 0 0 9.146 22.08 31.126 31.126 0 0 0 22.08 9.144 31.126 31.126 0 0 0 22.08-9.146 31.126 31.126 0 0 0 9.144-22.079 31.126 31.126 0 0 0-9.146-22.08 31.126 31.126 0 0 0-22.079-9.145m0-4c19.454 0 35.225 15.77 35.225 35.225 0 19.454-15.77 35.225-35.225 35.225-19.454 0-35.225-15.77-35.225-35.225 0-19.454 15.77-35.225 35.225-35.225Z" fill="#fff"/></g></g><g fill="#fff"><path data-name="Path 262" d="M44.582 29.161a4.082 4.082 0 1 0-4.082 4.082 4.087 4.087 0 0 0 4.082-4.082Zm-5.937 0a1.855 1.855 0 1 1 1.855 1.855 1.858 1.858 0 0 1-1.855-1.855Z"/><path data-name="Path 263" d="M57.273 50.654v-6.5a1.113 1.113 0 0 0-1.113-1.112h-4.682a3.339 3.339 0 0 0-6.3 0h-3.565v-3.861h1.113a1.113 1.113 0 0 0 1.113-1.113v-1.46a8.081 8.081 0 0 0 1.436-.832l1.267.732a1.113 1.113 0 0 0 1.521-.407l2.227-3.859a1.113 1.113 0 0 0-.407-1.521l-1.261-.728a8.229 8.229 0 0 0 0-1.665l1.261-.728a1.113 1.113 0 0 0 .407-1.521l-2.226-3.856a1.113 1.113 0 0 0-1.521-.407l-1.267.732a8.078 8.078 0 0 0-1.436-.832v-1.461a1.113 1.113 0 0 0-1.113-1.113h-4.454a1.113 1.113 0 0 0-1.113 1.113v1.46a8.081 8.081 0 0 0-1.436.832l-1.267-.732a1.113 1.113 0 0 0-1.521.407L30.71 26.08a1.113 1.113 0 0 0 .407 1.521l1.261.728a8.236 8.236 0 0 0 0 1.665l-1.261.728a1.113 1.113 0 0 0-.407 1.52l2.227 3.856a1.113 1.113 0 0 0 1.521.407l1.267-.732a8.081 8.081 0 0 0 1.436.832v1.46a1.113 1.113 0 0 0 1.113 1.113h1.113v3.864h-3.569a3.339 3.339 0 0 0-6.3 0H24.84a1.113 1.113 0 0 0-1.113 1.113v6.5a3.34 3.34 0 1 0 2.227 0v-5.388h3.568a3.339 3.339 0 0 0 6.3 0h3.568v5.387a3.34 3.34 0 1 0 2.227 0v-5.387h3.568a3.339 3.339 0 0 0 6.3 0h3.568v5.387a3.34 3.34 0 1 0 2.227 0ZM38.625 34.792a5.894 5.894 0 0 1-2.06-1.193 1.113 1.113 0 0 0-1.3-.131l-.962.555-1.113-1.928.954-.551a1.113 1.113 0 0 0 .534-1.187 6 6 0 0 1 0-2.39 1.113 1.113 0 0 0-.534-1.187l-.954-.551 1.113-1.928.962.555a1.113 1.113 0 0 0 1.3-.131 5.894 5.894 0 0 1 2.06-1.193 1.113 1.113 0 0 0 .761-1.056v-1.107h2.227v1.106a1.113 1.113 0 0 0 .762 1.056 5.893 5.893 0 0 1 2.06 1.193 1.113 1.113 0 0 0 1.3.131l.962-.555 1.113 1.928-.954.551a1.113 1.113 0 0 0-.534 1.187 6 6 0 0 1 0 2.389 1.113 1.113 0 0 0 .534 1.187l.954.551-1.118 1.929-.962-.555a1.114 1.114 0 0 0-1.3.131 5.893 5.893 0 0 1-2.06 1.193 1.113 1.113 0 0 0-.762 1.056v1.107h-2.221v-1.106a1.113 1.113 0 0 0-.762-1.056ZM24.84 54.915a1.113 1.113 0 1 1 1.113-1.113 1.115 1.115 0 0 1-1.113 1.113Zm7.83-9.648a1.113 1.113 0 1 1 1.113-1.113 1.115 1.115 0 0 1-1.113 1.113Zm7.83 9.648a1.113 1.113 0 1 1 1.113-1.113 1.115 1.115 0 0 1-1.113 1.113Zm7.83-9.648a1.113 1.113 0 1 1 1.113-1.113 1.115 1.115 0 0 1-1.113 1.113Zm7.83 9.648a1.113 1.113 0 1 1 1.113-1.113 1.115 1.115 0 0 1-1.113 1.113Z"/></g></g></svg>