<svg xmlns="http://www.w3.org/2000/svg" width="80" height="80"><g data-name="Group 270"><g data-name="Group 190"><g data-name="Group 14"><path data-name="Path 65" d="M40 0A40 40 0 1 1 0 40 40 40 0 0 1 40 0Z" fill="#9f8268"/></g><g data-name="Path 206" fill="none"><path d="M40.275 4.752A35.225 35.225 0 1 1 5.05 39.977 35.225 35.225 0 0 1 40.275 4.752Z"/><path d="M40.275 8.752a31.126 31.126 0 0 0-22.08 9.146 31.126 31.126 0 0 0-9.145 22.08 31.126 31.126 0 0 0 9.146 22.08 31.126 31.126 0 0 0 22.08 9.144 31.126 31.126 0 0 0 22.08-9.146 31.126 31.126 0 0 0 9.144-22.079 31.126 31.126 0 0 0-9.146-22.08 31.126 31.126 0 0 0-22.079-9.145m0-4c19.454 0 35.225 15.77 35.225 35.225 0 19.454-15.77 35.225-35.225 35.225-19.454 0-35.225-15.77-35.225-35.225 0-19.454 15.77-35.225 35.225-35.225Z" fill="#fff"/></g></g><g fill="#fff"><path data-name="Path 253" d="M57.387 54.915h-1.123V29.198a1.113 1.113 0 0 0-1.113-1.113h-4.472a1.113 1.113 0 0 0-1.113 1.113v25.717h-2.245V33.67a1.113 1.113 0 0 0-1.113-1.113h-4.472a1.113 1.113 0 0 0-1.113 1.113v21.245h-2.246V38.142a1.113 1.113 0 0 0-1.113-1.113h-4.472a1.113 1.113 0 0 0-1.113 1.113v16.773h-2.245v-12.3a1.113 1.113 0 0 0-1.113-1.113h-4.472a1.113 1.113 0 0 0-1.113 1.113v12.3h-1.123a1.113 1.113 0 0 0 0 2.227h35.774a1.113 1.113 0 0 0 0-2.227Z"/><path data-name="Path 254" d="M21.612 34.784c.037 0 .074 0 .111-.005a77.276 77.276 0 0 0 15.845-3.169 54.69 54.69 0 0 0 10.591-4.593 37.341 37.341 0 0 0 5.878-4.112v1.822a1.113 1.113 0 1 0 2.227 0v-4.472a1.113 1.113 0 0 0-1.113-1.114h-4.472a1.113 1.113 0 0 0 0 2.227H52.4a35.662 35.662 0 0 1-5.481 3.79c-4.733 2.701-12.989 6.176-25.419 7.404a1.113 1.113 0 0 0 .108 2.221Z"/></g></g></svg>