<svg xmlns="http://www.w3.org/2000/svg" width="80" height="80" viewBox="0 0 80 80">
  <g id="Group_2" data-name="Group 2" transform="translate(-440 -393)">
    <circle id="Ellipse_1" data-name="Ellipse 1" cx="40" cy="40" r="40" transform="translate(440 393)" fill="#9f8268"/>
    <g id="Ellipse_2" data-name="Ellipse 2" transform="translate(445 398)" fill="rgba(159,130,104,0)" stroke="#fff" stroke-width="4">
      <circle cx="35" cy="35" r="35" stroke="none"/>
      <circle cx="35" cy="35" r="33" fill="none"/>
    </g>
    <path id="comments-solid" d="M27.857,42.714C27.857,36.795,21.623,32,13.929,32S0,36.795,0,42.714a9.085,9.085,0,0,0,2.545,6.161,15.072,15.072,0,0,1-2.4,3.65.532.532,0,0,0-.1.583.524.524,0,0,0,.489.321,11.791,11.791,0,0,0,5.94-1.674,17.039,17.039,0,0,0,7.453,1.674C21.623,53.429,27.857,48.634,27.857,42.714Zm8.17,14.732a9.072,9.072,0,0,0,2.545-6.161c0-4.48-3.583-8.317-8.658-9.917A9.952,9.952,0,0,1,30,42.714c0,7.092-7.212,12.857-16.071,12.857a20.078,20.078,0,0,1-2.123-.127C13.915,59.295,18.871,62,24.643,62A16.946,16.946,0,0,0,32.1,60.326,11.791,11.791,0,0,0,38.036,62a.528.528,0,0,0,.489-.321.537.537,0,0,0-.1-.583A14.912,14.912,0,0,1,36.027,57.446Z" transform="translate(460.714 386)" fill="#fff"/>
  </g>
</svg>
