<svg xmlns="http://www.w3.org/2000/svg" width="80" height="80"><g data-name="Group 267"><g data-name="Group 190"><g data-name="Group 14"><path data-name="Path 65" d="M40 0A40 40 0 1 1 0 40 40 40 0 0 1 40 0Z" fill="#9f8268"/></g><g data-name="Path 206" fill="none"><path d="M40.275 4.752A35.225 35.225 0 1 1 5.05 39.977 35.225 35.225 0 0 1 40.275 4.752Z"/><path d="M40.275 8.752a31.126 31.126 0 0 0-22.08 9.146 31.126 31.126 0 0 0-9.145 22.08 31.126 31.126 0 0 0 9.146 22.08 31.126 31.126 0 0 0 22.08 9.144 31.126 31.126 0 0 0 22.08-9.146 31.126 31.126 0 0 0 9.144-22.079 31.126 31.126 0 0 0-9.146-22.08 31.126 31.126 0 0 0-22.079-9.145m0-4c19.454 0 35.225 15.77 35.225 35.225 0 19.454-15.77 35.225-35.225 35.225-19.454 0-35.225-15.77-35.225-35.225 0-19.454 15.77-35.225 35.225-35.225Z" fill="#fff"/></g></g><g fill="#fff"><path data-name="Path 53" d="m58.072 41.944-4.836 6.324a5.115 5.115 0 0 1-4.063 2.008h-8.98a1.279 1.279 0 1 1 0-2.557h7.783a3.03 3.03 0 0 0 3.042-3.042 2.983 2.983 0 0 0-2.983-2.925h-8.949a7.4 7.4 0 0 0-9.436-.688l-.963.688v14.491h22.236a7.672 7.672 0 0 0 6.453-3.523l4.99-7.762a2.625 2.625 0 0 0-4.293-3.014Z"/><path data-name="Path 54" d="M24.85 39.195h-4.432a1.279 1.279 0 0 0-1.279 1.279v17.048a1.279 1.279 0 0 0 1.279 1.279h4.432a1.279 1.279 0 0 0 1.279-1.279V40.474a1.279 1.279 0 0 0-1.279-1.279Z"/><path data-name="Path 55" d="M43.54 22.22a1.269 1.269 0 0 0-.453.763.883.883 0 0 0 .22.855c.071.056.149.11.233.164Z"/><path data-name="Path 56" d="M44.455 36.468A10.655 10.655 0 1 0 33.8 25.813a10.667 10.667 0 0 0 10.655 10.655Zm-3.225-7.171a.852.852 0 0 1 1.18-.247 2.581 2.581 0 0 0 1.134.486v-3.6a6.287 6.287 0 0 1-1.285-.752 2.551 2.551 0 0 1-.843-2.512 2.871 2.871 0 0 1 1.969-2.251 5.51 5.51 0 0 1 .159-.045v-.53a.852.852 0 0 1 1.7 0v.437a2.96 2.96 0 0 1 1.7.876.852.852 0 0 1-1.281 1.125 1.174 1.174 0 0 0-.415-.246v2.755c.151.056.3.111.451.163a3.051 3.051 0 0 1 2.074 3.451 3.467 3.467 0 0 1-2.525 2.762v.61a.852.852 0 0 1-1.7 0v-.529a4.127 4.127 0 0 1-2.067-.774.852.852 0 0 1-.251-1.179Z"/><path data-name="Path 57" d="M46.093 28.125a1.319 1.319 0 0 0-.844-1.516v2.738a1.762 1.762 0 0 0 .844-1.222Z"/></g></g></svg>