<svg xmlns="http://www.w3.org/2000/svg" width="80" height="80"><g data-name="Group 269"><g data-name="Group 190"><g data-name="Group 14"><path data-name="Path 65" d="M40 0A40 40 0 1 1 0 40 40 40 0 0 1 40 0Z" fill="#9f8268"/></g><g data-name="Path 206" fill="none"><path d="M40.275 4.752A35.225 35.225 0 1 1 5.05 39.977 35.225 35.225 0 0 1 40.275 4.752Z"/><path d="M40.275 8.752a31.126 31.126 0 0 0-22.08 9.146 31.126 31.126 0 0 0-9.145 22.08 31.126 31.126 0 0 0 9.146 22.08 31.126 31.126 0 0 0 22.08 9.144 31.126 31.126 0 0 0 22.08-9.146 31.126 31.126 0 0 0 9.144-22.079 31.126 31.126 0 0 0-9.146-22.08 31.126 31.126 0 0 0-22.079-9.145m0-4c19.454 0 35.225 15.77 35.225 35.225 0 19.454-15.77 35.225-35.225 35.225-19.454 0-35.225-15.77-35.225-35.225 0-19.454 15.77-35.225 35.225-35.225Z" fill="#fff"/></g></g><g data-name="idea (1)" fill="#fff"><path data-name="Path 144" d="M32.127 42.74a4.177 4.177 0 1 0-4.177 4.177 4.182 4.182 0 0 0 4.177-4.177Z"/><path data-name="Path 145" d="M56.227 42.74a4.177 4.177 0 1 0-4.177 4.177 4.182 4.182 0 0 0 4.177-4.177Z"/><path data-name="Path 146" d="M44.177 42.74a4.177 4.177 0 1 0-4.178 4.177 4.182 4.182 0 0 0 4.178-4.177Z"/><path data-name="Path 147" d="M32.43 48.5a7.167 7.167 0 0 0-11.631 5.568v1.285a1.125 1.125 0 0 0 1.125 1.125h8.869a3.359 3.359 0 0 1-.194-1.125v-1.285a9.35 9.35 0 0 1 1.831-5.567Z"/><path data-name="Path 148" d="M52.046 46.918a7.115 7.115 0 0 0-4.481 1.583 9.349 9.349 0 0 1 1.831 5.567v1.285a3.359 3.359 0 0 1-.194 1.125h8.869a1.125 1.125 0 0 0 1.125-1.125v-1.285a7.158 7.158 0 0 0-7.15-7.15Z"/><path data-name="Path 149" d="M39.999 46.918a7.158 7.158 0 0 0-7.15 7.15v1.285a1.125 1.125 0 0 0 1.125 1.125h12.05a1.125 1.125 0 0 0 1.125-1.125v-1.285a7.158 7.158 0 0 0-7.15-7.15Z"/><path data-name="Path 150" d="M31.155 18.407a1.125 1.125 0 1 0-1.589 1.591l1.2 1.205a1.125 1.125 0 1 0 1.591-1.591Z"/><path data-name="Path 151" d="m30.766 28.047-1.2 1.205a1.125 1.125 0 1 0 1.591 1.591l1.2-1.205a1.125 1.125 0 0 0-1.591-1.591Z"/><path data-name="Path 152" d="M28.113 25.75h1.7a1.125 1.125 0 0 0 0-2.25h-1.7a1.125 1.125 0 0 0 0 2.25Z"/><path data-name="Path 153" d="m49.23 21.204 1.2-1.205a1.125 1.125 0 1 0-1.588-1.591l-1.2 1.205a1.125 1.125 0 0 0 1.591 1.591Z"/><path data-name="Path 154" d="M48.842 30.843a1.125 1.125 0 0 0 1.591-1.591l-1.2-1.205a1.125 1.125 0 0 0-1.591 1.591Z"/><path data-name="Path 155" d="M49.056 24.625a1.125 1.125 0 0 0 1.125 1.125h1.7a1.125 1.125 0 0 0 0-2.25h-1.7a1.125 1.125 0 0 0-1.125 1.125Z"/><path data-name="Path 156" d="M36.464 32.458a3.535 3.535 0 0 0 7.07 0v-.16h-7.07Z"/><path data-name="Path 157" d="M36.464 30.048h7.07a2.824 2.824 0 0 1 .771-1.928 5.944 5.944 0 1 0-8.612 0 2.824 2.824 0 0 1 .771 1.928Z"/></g></g></svg>