<svg xmlns="http://www.w3.org/2000/svg" width="80" height="80"><g data-name="Group 265"><g data-name="Group 190"><g data-name="Group 14"><path data-name="Path 65" d="M40 0A40 40 0 1 1 0 40 40 40 0 0 1 40 0Z" fill="#9f8268"/></g><g data-name="Path 206" fill="none"><path d="M40.275 4.752A35.225 35.225 0 1 1 5.05 39.977 35.225 35.225 0 0 1 40.275 4.752Z"/><path d="M40.275 8.752a31.126 31.126 0 0 0-22.08 9.146 31.126 31.126 0 0 0-9.145 22.08 31.126 31.126 0 0 0 9.146 22.08 31.126 31.126 0 0 0 22.08 9.144 31.126 31.126 0 0 0 22.08-9.146 31.126 31.126 0 0 0 9.144-22.079 31.126 31.126 0 0 0-9.146-22.08 31.126 31.126 0 0 0-22.079-9.145m0-4c19.454 0 35.225 15.77 35.225 35.225 0 19.454-15.77 35.225-35.225 35.225-19.454 0-35.225-15.77-35.225-35.225 0-19.454 15.77-35.225 35.225-35.225Z" fill="#fff"/></g></g><g fill="#fff"><path data-name="Path 137" d="M19.84 28.402v24.864a3.36 3.36 0 0 0 3.36 3.36h7.392v-2.684h-6.72a1.344 1.344 0 0 1-1.344-1.344h8.064V51.25h-8.064v-.672h8.064v-1.344h-8.064v-.672h8.064v-1.344h-8.064v-.676h8.064v-1.34h-8.064v-.672h8.064v-1.344h-8.064v-.672h8.064V41.17h-8.064v-.672h8.064v-1.344h-8.064v-.672h8.064v-1.34h-8.064v-.672h8.064v-1.348h-8.064v-.672h8.064v-1.344h-8.064v-.672h8.064V31.09h-8.064v-.672h8.064v-1.344h-8.064a1.344 1.344 0 0 1 1.344-1.344h6.72v-2.688H23.2a3.36 3.36 0 0 0-3.36 3.36Z"/><path data-name="Path 138" d="M54.78 45.874a5.427 5.427 0 0 0-.982.093l-3.816-7.473 4.798-22.188-8.06 15.792-8.064-15.792 4.8 22.189-3.816 7.473a5.374 5.374 0 1 0 4.394 5.283 5.356 5.356 0 0 0-1.728-3.945l2.124-4.248a3.914 3.914 0 0 1 2.29-1.965 3.91 3.91 0 0 1 2.29 1.965l2.124 4.248a5.37 5.37 0 1 0 3.65-1.437Zm-16.124 8.732a3.36 3.36 0 1 1 3.36-3.36 3.36 3.36 0 0 1-3.36 3.36Zm8.736-16.8v1.344h-1.344v-1.344Zm7.388 16.8a3.36 3.36 0 1 1 3.36-3.36 3.36 3.36 0 0 1-3.36 3.36Z"/></g></g></svg>