<svg xmlns="http://www.w3.org/2000/svg" width="1400" height="421"><defs><clipPath id="a"><path d="M0 0h1400v421H0z"/></clipPath></defs><g data-name="Artboard – 6" clip-path="url(#a)"><path fill="#fff" d="M0 0h1400v421H0z"/><g data-name="Group 282" fill="none"><g data-name="Group 174" opacity=".5"><g data-name="Path 197"><path d="M219.889 203.11a92.241 92.241 0 1 1-92.241 92.241 92.161 92.161 0 0 1 92.241-92.241Z"/><path d="M219.889 211.11c-46.45 0-84.241 37.79-84.241 84.241 0 46.45 37.79 84.24 84.241 84.24 46.45 0 84.24-37.79 84.24-84.24 0-16.513-4.772-32.498-13.803-46.227-15.658-23.803-41.99-38.014-70.437-38.014m0-8c32.247 0 60.63 16.548 77.12 41.618 9.559 14.53 15.12 31.927 15.12 50.623 0 50.943-41.297 92.24-92.24 92.24s-92.241-41.297-92.241-92.24 41.298-92.241 92.241-92.241Z" fill="#fdf4ec"/></g><g data-name="Path 198"><path d="M174.012 179.181a92.241 92.241 0 1 1-92.241 92.241 92.161 92.161 0 0 1 92.241-92.241Z"/><path d="M174.012 187.181c-46.45 0-84.241 37.79-84.241 84.241 0 46.45 37.79 84.24 84.241 84.24 46.45 0 84.24-37.79 84.24-84.24 0-16.513-4.772-32.498-13.803-46.227-15.658-23.803-41.99-38.014-70.437-38.014m0-8c32.247 0 60.63 16.548 77.12 41.618 9.559 14.53 15.12 31.927 15.12 50.623 0 50.943-41.297 92.24-92.24 92.24s-92.241-41.297-92.241-92.24 41.298-92.241 92.241-92.241Z" fill="#fdf4ec"/></g></g><g data-name="Group 173" opacity=".5"><g data-name="Path 199"><path d="M1243.99 74.889a92.241 92.241 0 1 1-92.241 92.241 92.161 92.161 0 0 1 92.241-92.241Z"/><path d="M1243.99 82.889c-46.45 0-84.241 37.79-84.241 84.241 0 46.45 37.79 84.24 84.241 84.24 46.45 0 84.24-37.79 84.24-84.24 0-16.513-4.772-32.498-13.803-46.227-15.658-23.803-41.99-38.014-70.437-38.014m0-8c32.247 0 60.63 16.548 77.12 41.618 9.559 14.53 15.12 31.927 15.12 50.623 0 50.943-41.297 92.24-92.24 92.24s-92.241-41.297-92.241-92.24 41.298-92.241 92.241-92.241Z" fill="#fdf4ec"/></g><g data-name="Path 200"><path d="M1198.111 50.96a92.241 92.241 0 1 1-92.241 92.241 92.161 92.161 0 0 1 92.241-92.241Z"/><path d="M1198.111 58.96c-46.45 0-84.241 37.79-84.241 84.241 0 46.45 37.79 84.24 84.241 84.24 46.45 0 84.24-37.79 84.24-84.24 0-16.513-4.772-32.498-13.803-46.227-15.658-23.803-41.99-38.014-70.437-38.014m0-8c32.247 0 60.63 16.548 77.12 41.618 9.559 14.53 15.12 31.927 15.12 50.623 0 50.943-41.297 92.24-92.24 92.24s-92.241-41.297-92.241-92.24 41.298-92.241 92.241-92.241Z" fill="#fdf4ec"/></g></g></g></g></svg>