<svg xmlns="http://www.w3.org/2000/svg" width="31.319" height="31.319"><path data-name="Path 40" d="M24.9 31.319H6.423A6.43 6.43 0 0 1 0 24.9V6.423A6.43 6.43 0 0 1 6.423 0H24.9a6.43 6.43 0 0 1 6.423 6.423V24.9a6.43 6.43 0 0 1-6.423 6.419Z" fill="#00c3ff"/><path data-name="Path 41" d="M24.896 0h-9.237v31.319h9.237a6.43 6.43 0 0 0 6.423-6.423V6.423A6.43 6.43 0 0 0 24.896 0Z" fill="#00aaf0"/><g data-name="Group 39" fill="#fff"><path data-name="Path 42" d="M9.643 24.132a1.53 1.53 0 0 1-2.089.56 1.531 1.531 0 0 1-.56-2.089l.3-.521h3.532Z"/><path data-name="Path 43" d="M6.759 20.859a1.529 1.529 0 1 1 0-3.058h3.008l4.126-7.147-1.118-1.938a1.531 1.531 0 0 1 .56-2.089 1.531 1.531 0 0 1 2.089.56l.235.408.235-.408a1.53 1.53 0 1 1 2.649 1.529L13.299 17.8h3.308l1.766 3.058Z"/></g><g data-name="Group 40" fill="#f2f2f2"><path data-name="Path 44" d="M24.559 20.859h-1.24l1.007 1.744a1.53 1.53 0 1 1-2.649 1.529l-5.31-9.2 1.766-3.059 3.42 5.923h3.008a1.529 1.529 0 0 1 0 3.058Z"/><path data-name="Path 45" d="M15.659 17.8v3.058h2.714L16.607 17.8Z"/><path data-name="Path 46" d="M18.696 7.557a1.529 1.529 0 0 0-2.8-.369l-.235.408v6.121l2.884-5a1.519 1.519 0 0 0 .151-1.16Z"/></g></svg>