<svg xmlns="http://www.w3.org/2000/svg" width="1400" height="1109"><defs><clipPath id="a"><path d="M0 0h1400v1109H0z"/></clipPath></defs><g data-name="Artboard – 3" clip-path="url(#a)"><path fill="#fff" d="M0 0h1400v1109H0z"/><g data-name="Group 279"><g data-name="Path 190" fill="none" opacity=".5"><path d="M1082.5 90A231.432 231.432 0 0 1 1314 321.5c0 127.854-103.646 231.5-231.5 231.5S851 449.354 851 321.5 954.646 90 1082.5 90Z"/><path d="M1082.5 98C959.262 98 859 198.262 859 321.5S959.262 545 1082.5 545 1306 444.738 1306 321.5c0-43.81-12.667-86.223-36.632-122.655C1227.83 135.7 1157.973 98 1082.5 98m0-8c80.932 0 152.163 41.53 193.552 104.449C1300.04 230.916 1314 274.578 1314 321.5c0 127.854-103.646 231.5-231.5 231.5S851 449.354 851 321.5 954.646 90 1082.5 90Z" fill="#fdf4ec"/></g><g data-name="Path 191" fill="none" opacity=".5"><path d="M835.5 254A231.432 231.432 0 0 1 1067 485.5C1067 613.354 963.354 717 835.5 717S604 613.354 604 485.5 707.646 254 835.5 254Z"/><path d="M835.5 262C712.262 262 612 362.262 612 485.5S712.262 709 835.5 709 1059 608.738 1059 485.5c0-43.81-12.667-86.223-36.632-122.655C980.83 299.7 910.973 262 835.5 262m0-8c80.932 0 152.163 41.53 193.552 104.449C1053.04 394.916 1067 438.578 1067 485.5 1067 613.354 963.354 717 835.5 717S604 613.354 604 485.5 707.646 254 835.5 254Z" fill="#fdf4ec"/></g><path data-name="Icon awesome-money-check" d="M1004.743 803.48a12.216 12.216 0 0 0-3.591 16.896l119.742 184.388a12.216 12.216 0 0 0 16.896 3.591l102.438-66.524-133.047-204.874Zm159.718 100.173a6.105 6.105 0 0 1 8.448 1.795l19.957 30.732a6.105 6.105 0 0 1-1.796 8.448l-10.243 6.652a6.105 6.105 0 0 1-8.448-1.796l-19.957-30.731a6.105 6.105 0 0 1 1.795-8.448Zm-38.411 24.944a3.053 3.053 0 0 1 4.224.898l23.281 35.85a3.053 3.053 0 0 1-.898 4.225l-5.121 3.326a3.053 3.053 0 0 1-4.225-.898l-23.283-35.854a3.053 3.053 0 0 1 .896-4.219Zm-49.097-142.882a3.053 3.053 0 0 1 4.224.898l63.198 97.315a3.053 3.053 0 0 1-.898 4.225l-5.122 3.326a3.053 3.053 0 0 1-4.225-.898l-63.198-97.316a3.053 3.053 0 0 1 .898-4.225Zm-30.732 19.957a3.053 3.053 0 0 1 4.225.898l36.588 56.34a3.053 3.053 0 0 1-.898 4.225l-5.122 3.326a3.053 3.053 0 0 1-4.225-.898l-36.588-56.34a3.053 3.053 0 0 1 .898-4.225Zm221.413 111.081-126.396-194.632a6.105 6.105 0 0 0-8.448-1.795l-15.366 9.978 133.048 204.876 15.366-9.979a6.105 6.105 0 0 0 1.796-8.448Z" fill="#fdf4ec" opacity=".5"/><path data-name="Icon ionic-ios-phone-portrait" d="m375.926 138.738-79.74-57.957a20.453 20.453 0 0 0-28.67 4.446L128.283 276.79c-6.724 9.252-5.019 22.555 4.181 29.241l79.693 57.923c9.202 6.688 21.979 3.91 28.702-5.34l139.233-191.564a19.945 19.945 0 0 0-4.166-28.312Zm-56.02-23.042 15.084 10.963a2.486 2.486 0 0 1-2.924 4.022l-15.083-10.963a2.486 2.486 0 0 1 2.923-4.022Zm-142.04 211.81a10.815 10.815 0 1 1 15.108-2.39 10.823 10.823 0 0 1-15.107 2.39Zm64.92 9.533-94.526-68.704a1.247 1.247 0 0 1-.275-1.736l120.231-165.42a1.247 1.247 0 0 1 1.737-.275l94.526 68.703a1.247 1.247 0 0 1 .276 1.738l-120.231 165.42a1.247 1.247 0 0 1-1.739.274Z" fill="#fdf4ec" opacity=".5"/><g data-name="Path 189" fill="none" opacity=".5"><path d="M347.5 613A231.432 231.432 0 0 1 579 844.5c0 127.854-103.646 231.5-231.5 231.5S116 972.354 116 844.5 219.646 613 347.5 613Z"/><path d="M347.5 621C224.262 621 124 721.262 124 844.5S224.262 1068 347.5 1068 571 967.738 571 844.5c0-43.81-12.667-86.223-36.632-122.655C492.83 658.7 422.973 621 347.5 621m0-8c80.932 0 152.163 41.53 193.552 104.449C565.04 753.916 579 797.578 579 844.5c0 127.854-103.646 231.5-231.5 231.5S116 972.354 116 844.5 219.646 613 347.5 613Z" fill="#fdf4ec"/></g></g></g></svg>