<svg xmlns="http://www.w3.org/2000/svg" width="22.914" height="25.647"><path data-name="Path 33" d="m16.808 12.823-15.8 12.254a2.617 2.617 0 0 1-1.012-2.084V2.653A2.615 2.615 0 0 1 1.008.57Z" fill="#9dc6fb"/><path data-name="Path 34" d="m21.589 15.118-3.822 2.207-3.35-.419-1.151-4.082.584-3.908 3.916-.592 3.822 2.206a2.649 2.649 0 0 1 .001 4.588Z" fill="#ffe07d"/><path data-name="Path 35" d="M17.766 17.324 3.974 25.287a2.635 2.635 0 0 1-2.962-.211l12.254-12.252Z" fill="#dd5790"/><path data-name="Path 36" d="m17.766 8.322-4.5 4.5L1.012.57A2.634 2.634 0 0 1 3.974.359Z" fill="#95d6a4"/><path data-name="Path 37" d="M2.986 22.989a2.707 2.707 0 0 0 .048.515l-2.022 1.569A2.616 2.616 0 0 1 0 22.989V2.653A2.616 2.616 0 0 1 1.012.57l2.023 1.569a2.7 2.7 0 0 0-.048.514Z" fill="#80b4fb"/><path data-name="Path 38" d="m4.15 25.187-.175.1a2.636 2.636 0 0 1-2.962-.211L2.989 23.1a2.614 2.614 0 0 0 1.01 1.976c.048.042.099.076.151.111Z" fill="#da387d"/><path data-name="Path 39" d="M3.998.571a2.614 2.614 0 0 0-1.01 1.976L1.012.571A2.634 2.634 0 0 1 3.974.359l.175.1c-.052.035-.1.072-.151.11Z" fill="#78c2a4"/></svg>