<svg xmlns="http://www.w3.org/2000/svg" width="1400" height="684"><defs><clipPath id="a"><path d="M0 0h1400v684H0z"/></clipPath></defs><g data-name="Artboard – 5" clip-path="url(#a)"><path fill="#fff" d="M0 0h1400v684H0z"/><g data-name="Group 281" fill="#fdf4ec"><path data-name="Icon awesome-question-circle" d="M319.137 161.939a92.059 92.059 0 1 1-92.059-92.06 92.054 92.054 0 0 1 92.059 92.06Zm-89.589-61.622c-20.23 0-33.132 8.522-43.264 23.667a4.461 4.461 0 0 0 1.008 6.033l12.881 9.77a4.453 4.453 0 0 0 6.186-.788c6.631-8.411 11.178-13.288 21.271-13.288 7.583 0 16.963 4.881 16.963 12.234 0 5.559-4.589 8.414-12.077 12.612-8.732 4.9-20.287 10.988-20.287 26.229v1.485a4.455 4.455 0 0 0 4.454 4.454h20.788a4.455 4.455 0 0 0 4.454-4.454v-.495c0-10.565 30.879-11.005 30.879-39.6.001-21.525-22.332-37.859-43.256-37.859Zm-2.47 92.059a17.076 17.076 0 1 0 17.078 17.077 17.095 17.095 0 0 0-17.078-17.075Z" opacity=".5"/><path data-name="Icon ionic-md-mail" d="m1277.386 41.24-197.415 99.657c-12.776 6.45-17.817 21.605-11.203 33.683l75.148 137.24c6.614 12.079 22.475 16.684 35.25 10.234l197.415-99.656c12.775-6.449 17.816-21.605 11.202-33.683l-75.148-137.24c-6.613-12.08-22.473-16.683-35.249-10.235Zm22.648 48.126-62.743 108.744-128.868-12.018-12.024-21.958 128.87 12.021 62.74-108.746Z" opacity=".5"/></g></g></svg>